PathFileType  4	(X/Y/Z) C:\Users\wagnerel85475\Documents\Thesis\opencap-core\Data\3375ffbc-daeb-4a43-b4f7-ac9899cd4c71\MarkerData\PreAugmentation
DataRate	CameraRate	NumFrames	NumMarkers	Units	OrigDataRate	OrigDataStartFrame	OrigNumFrames
60.0	60.0	15	20	m	60.0	391	780
Frame#	Time	Neck			RShoulder			RElbow			RWrist			LShoulder			LElbow			LWrist			midHip			RHip			RKnee			RAnkle			LHip			LKnee			LAnkle			LBigToe			LSmallToe			LHeel			RBigToe			RSmallToe			RHeel			
		X1	Y1	Z1	X2	Y2	Z2	X3	Y3	Z3	X4	Y4	Z4	X5	Y5	Z5	X6	Y6	Z6	X7	Y7	Z7	X8	Y8	Z8	X9	Y9	Z9	X10	Y10	Z10	X11	Y11	Z11	X12	Y12	Z12	X13	Y13	Z13	X14	Y14	Z14	X15	Y15	Z15	X16	Y16	Z16	X17	Y17	Z17	X18	Y18	Z18	X19	Y19	Z19	X20	Y20	Z20	

391	6.5000000	-0.7963000	1.3819900	-0.0224400	-0.7832800	1.3611300	0.1488600	-0.8343600	1.0452800	0.2091900	-0.7016800	0.7621100	0.2488300	-0.7923500	1.4370900	-0.2056800	-0.6740400	1.6821700	-0.3704600	-0.6699100	1.9858700	-0.3652700	-0.7024500	0.8072900	-0.0351200	-0.7195000	0.8017000	0.0895500	-0.7576600	0.3187700	0.0906900	-0.8390000	-0.1818800	0.1414200	-0.7449300	0.8042700	-0.1572000	-0.7789400	0.3164200	-0.1467200	-0.8622700	-0.1905300	-0.1906300	-0.6025200	-0.2388000	-0.2613300	-0.6794700	-0.2469900	-0.2969600	-0.8934600	-0.2445500	-0.1793400	-0.6032900	-0.2324200	0.2022900	-0.6942700	-0.2334100	0.2489900	-0.9288600	-0.2464400	0.1117500
392	6.5166667	-0.7963300	1.3820300	-0.0224400	-0.7833500	1.3611700	0.1488400	-0.8344300	1.0452600	0.2092000	-0.7021500	0.7621400	0.2487400	-0.7923000	1.4370900	-0.2057000	-0.6710600	1.6816300	-0.3713400	-0.6655600	1.9851500	-0.3666400	-0.6995700	0.8075600	-0.0362000	-0.7198900	0.8037200	0.0896100	-0.7576700	0.3188000	0.0906900	-0.8389800	-0.1818900	0.1414200	-0.7449400	0.8043000	-0.1572300	-0.7744800	0.3172300	-0.1482200	-0.8626900	-0.1915900	-0.1905100	-0.6024400	-0.2387900	-0.2613300	-0.6793900	-0.2469500	-0.2969500	-0.8940300	-0.2455100	-0.1791200	-0.6033700	-0.2324500	0.2022900	-0.6942800	-0.2334400	0.2489900	-0.9288800	-0.2466500	0.1118000
393	6.5333333	-0.7963800	1.3820100	-0.0224400	-0.7832900	1.3611600	0.1488500	-0.8348200	1.0452500	0.2091300	-0.7025500	0.7624100	0.2487000	-0.7923400	1.4370900	-0.2057100	-0.6687100	1.6816200	-0.3720700	-0.6645400	1.9851600	-0.3670100	-0.6979000	0.8076900	-0.0368300	-0.7202200	0.8051700	0.0896500	-0.7576600	0.3188700	0.0906900	-0.8389900	-0.1818800	0.1414300	-0.7449400	0.8044300	-0.1572700	-0.7678500	0.3184900	-0.1504300	-0.8629200	-0.1922100	-0.1904400	-0.6022800	-0.2389000	-0.2613500	-0.6793000	-0.2469700	-0.2969600	-0.8945700	-0.2477800	-0.1788900	-0.6037600	-0.2325800	0.2022100	-0.6942800	-0.2334400	0.2489900	-0.9288700	-0.2463000	0.1117500
394	6.5500000	-0.7964100	1.3821100	-0.0224300	-0.7828600	1.3611300	0.1489400	-0.8353000	1.0452500	0.2090300	-0.7025800	0.7625100	0.2487100	-0.7923700	1.4371000	-0.2057100	-0.6658100	1.6814900	-0.3729600	-0.6651600	1.9851200	-0.3669200	-0.6986800	0.8076700	-0.0365800	-0.7203700	0.8056500	0.0896600	-0.7576500	0.3189900	0.0906900	-0.8390100	-0.1818700	0.1414300	-0.7449500	0.8045400	-0.1573000	-0.7633800	0.3194600	-0.1519000	-0.8626300	-0.1915900	-0.1905300	-0.6022600	-0.2388600	-0.2613600	-0.6792700	-0.2469800	-0.2969700	-0.8950500	-0.2493000	-0.1787300	-0.6042300	-0.2327200	0.2021100	-0.6942700	-0.2334500	0.2489900	-0.9288300	-0.2455900	0.1116400
395	6.5666667	-0.7964200	1.3820600	-0.0224400	-0.7823400	1.3611400	0.1490500	-0.8341300	1.0453000	0.2092500	-0.7024900	0.7624700	0.2487200	-0.7923300	1.4371300	-0.2057300	-0.6629900	1.6813000	-0.3738100	-0.6659100	1.9852800	-0.3667700	-0.6987900	0.8076400	-0.0365600	-0.7202500	0.8055100	0.0896700	-0.7575900	0.3186500	0.0907100	-0.8390000	-0.1818700	0.1414300	-0.7449400	0.8045400	-0.1573200	-0.7637200	0.3194900	-0.1517700	-0.8621900	-0.1905800	-0.1906600	-0.6022800	-0.2388700	-0.2613500	-0.6792900	-0.2469800	-0.2969800	-0.8949600	-0.2501100	-0.1787400	-0.6031000	-0.2324200	0.2023500	-0.6942400	-0.2334300	0.2489900	-0.9288100	-0.2452400	0.1115800
396	6.5833333	-0.7964600	1.3821900	-0.0224600	-0.7835700	1.3611600	0.1487800	-0.8293300	1.0455300	0.2102300	-0.7024600	0.7625900	0.2487300	-0.7922800	1.4371100	-0.2057700	-0.6618500	1.6812300	-0.3741700	-0.6663500	1.9853100	-0.3667000	-0.6969100	0.8077600	-0.0372600	-0.7198500	0.8049100	0.0897100	-0.7574700	0.3173200	0.0908100	-0.8389700	-0.1818700	0.1414400	-0.7449400	0.8045200	-0.1573300	-0.7672100	0.3185500	-0.1506200	-0.8620100	-0.1901300	-0.1907300	-0.6023000	-0.2388900	-0.2613500	-0.6792900	-0.2470300	-0.2969900	-0.8944300	-0.2509400	-0.1788700	-0.5984700	-0.2311600	0.2033300	-0.6941400	-0.2334200	0.2490100	-0.9287600	-0.2452300	0.1115900
397	6.6000000	-0.7965800	1.3820900	-0.0225000	-0.7885900	1.3611900	0.1476800	-0.8224400	1.0458200	0.2116400	-0.7024400	0.7626000	0.2487200	-0.7922500	1.4371200	-0.2058000	-0.6619600	1.6810800	-0.3741800	-0.6651500	1.9852500	-0.3671100	-0.6955200	0.8078800	-0.0378000	-0.7196800	0.8038300	0.0896800	-0.7573900	0.3153600	0.0909600	-0.8389300	-0.1818400	0.1414500	-0.7449900	0.8046600	-0.1573300	-0.7695400	0.3168800	-0.1498700	-0.8619900	-0.1902700	-0.1907400	-0.6023100	-0.2389000	-0.2613500	-0.6792900	-0.2469800	-0.2969800	-0.8940800	-0.2515000	-0.1789700	-0.5918300	-0.2293500	0.2047400	-0.6939800	-0.2334200	0.2490500	-0.9286900	-0.2452900	0.1116100
398	6.6166667	-0.7967000	1.3820700	-0.0225300	-0.7958100	1.3612600	0.1461000	-0.8177000	1.0460500	0.2126100	-0.7024300	0.7625700	0.2487100	-0.7922500	1.4371400	-0.2058300	-0.6622300	1.6811200	-0.3741500	-0.6607700	1.9846300	-0.3684600	-0.6965800	0.8077500	-0.0374500	-0.7211500	0.8030400	0.0893100	-0.7574200	0.3140200	0.0910700	-0.8388900	-0.1818300	0.1414600	-0.7450300	0.8046200	-0.1573300	-0.7695500	0.3150500	-0.1499200	-0.8620400	-0.1903900	-0.1907400	-0.6023100	-0.2388700	-0.2613500	-0.6792600	-0.2469800	-0.2969700	-0.8943400	-0.2510100	-0.1789200	-0.5872500	-0.2281000	0.2057100	-0.6938500	-0.2334500	0.2490700	-0.9286300	-0.2453100	0.1116200
399	6.6333333	-0.7966700	1.3821000	-0.0225300	-0.8007700	1.3613400	0.1450000	-0.8164400	1.0461200	0.2128500	-0.7024500	0.7624900	0.2486900	-0.7923800	1.4371000	-0.2058100	-0.6623600	1.6810600	-0.3741700	-0.6546000	1.9838500	-0.3703400	-0.6999900	0.8074700	-0.0362300	-0.7243200	0.8033900	0.0886400	-0.7574300	0.3137000	0.0911100	-0.8388800	-0.1818200	0.1414600	-0.7450900	0.8046100	-0.1573200	-0.7710900	0.3135500	-0.1494300	-0.8620700	-0.1904400	-0.1907300	-0.6023100	-0.2388800	-0.2613400	-0.6792500	-0.2469900	-0.2969700	-0.8948100	-0.2501400	-0.1788200	-0.5860600	-0.2277800	0.2059600	-0.6938200	-0.2334400	0.2490700	-0.9285900	-0.2453200	0.1116200
400	6.6500000	-0.7962700	1.3820700	-0.0224400	-0.8019700	1.3613900	0.1447300	-0.8164600	1.0461200	0.2128400	-0.7024900	0.7623800	0.2486900	-0.7927600	1.4370900	-0.2057400	-0.6623700	1.6810200	-0.3742000	-0.6503600	1.9834700	-0.3716300	-0.7035100	0.8071600	-0.0349700	-0.7260000	0.8043500	0.0883500	-0.7574000	0.3138200	0.0911000	-0.8389000	-0.1818300	0.1414600	-0.7451500	0.8046600	-0.1573200	-0.7747100	0.3127500	-0.1481400	-0.8621000	-0.1904300	-0.1907300	-0.6023400	-0.2388900	-0.2613500	-0.6792700	-0.2469900	-0.2969700	-0.8950300	-0.2497400	-0.1787700	-0.5862400	-0.2278300	0.2059300	-0.6938700	-0.2334500	0.2490600	-0.9285800	-0.2452600	0.1116200
401	6.6666667	-0.7957700	1.3821100	-0.0223400	-0.8014700	1.3614600	0.1448300	-0.8164300	1.0461000	0.2128500	-0.7025400	0.7624000	0.2486900	-0.7927300	1.4370700	-0.2057400	-0.6622400	1.6809100	-0.3741900	-0.6493600	1.9833500	-0.3719400	-0.7048800	0.8070600	-0.0344700	-0.7252200	0.8049400	0.0885800	-0.7573700	0.3138500	0.0911000	-0.8389100	-0.1818400	0.1414600	-0.7451400	0.8046500	-0.1573300	-0.7759500	0.3125500	-0.1475100	-0.8621200	-0.1903700	-0.1907400	-0.6024200	-0.2388400	-0.2613600	-0.6793600	-0.2469300	-0.2969800	-0.8950500	-0.2496700	-0.1787600	-0.5865600	-0.2279100	0.2058600	-0.6939300	-0.2334300	0.2490500	-0.9286000	-0.2450400	0.1116200
402	6.6833333	-0.7969100	1.3821800	-0.0226600	-0.8010700	1.3614600	0.1449000	-0.8180900	1.0460500	0.2125200	-0.7025000	0.7628400	0.2486400	-0.7907600	1.4370100	-0.2061500	-0.6619100	1.6808900	-0.3741200	-0.6498200	1.9832600	-0.3718300	-0.7035000	0.8071600	-0.0349600	-0.7267000	0.8048800	0.0882500	-0.7573800	0.3137000	0.0911200	-0.8389200	-0.1818600	0.1414600	-0.7450900	0.8046400	-0.1573400	-0.7742600	0.3128000	-0.1480300	-0.8620700	-0.1902200	-0.1907600	-0.6024800	-0.2388600	-0.2613600	-0.6794300	-0.2469600	-0.2970000	-0.8950000	-0.2497400	-0.1787700	-0.5882100	-0.2283600	0.2055100	-0.6939800	-0.2334100	0.2490400	-0.9286100	-0.2449000	0.1116100
403	6.7000000	-0.8017000	1.3824100	-0.0239000	-0.8010100	1.3615100	0.1449000	-0.8234000	1.0458000	0.2114400	-0.7023900	0.7637800	0.2485600	-0.7871200	1.4369100	-0.2070400	-0.6618400	1.6809200	-0.3741100	-0.6501600	1.9833100	-0.3717300	-0.6999900	0.8074600	-0.0362300	-0.7321300	0.8043800	0.0869600	-0.7574100	0.3139700	0.0911000	-0.8389300	-0.1818700	0.1414600	-0.7450100	0.8046400	-0.1573400	-0.7729400	0.3133200	-0.1494400	-0.8620100	-0.1900400	-0.1907800	-0.6025300	-0.2388400	-0.2613600	-0.6794800	-0.2469500	-0.2970100	-0.8950000	-0.2497200	-0.1787800	-0.5916500	-0.2293000	0.2047800	-0.6940000	-0.2334200	0.2490400	-0.9285700	-0.2457400	0.1115800
404	6.7166667	-0.8086200	1.3827200	-0.0256900	-0.8010600	1.3615100	0.1448700	-0.8290900	1.0455500	0.2102700	-0.7022500	0.7644000	0.2485300	-0.7866400	1.4368500	-0.2078700	-0.6632100	1.6809600	-0.3745800	-0.6502000	1.9832800	-0.3717200	-0.6965000	0.8077900	-0.0374800	-0.7355600	0.8036800	0.0861000	-0.7574300	0.3152700	0.0909800	-0.8389400	-0.1818900	0.1414600	-0.7449700	0.8046400	-0.1573200	-0.7726000	0.3146100	-0.1516400	-0.8621300	-0.1903900	-0.1907400	-0.6025000	-0.2388400	-0.2613700	-0.6793500	-0.2469200	-0.2969800	-0.8950000	-0.2497200	-0.1787800	-0.5936200	-0.2298300	0.2043800	-0.6940300	-0.2334200	0.2490500	-0.9284900	-0.2481200	0.1116300
405	6.7333333	-0.8133100	1.3823500	-0.0269500	-0.8010800	1.3614900	0.1448500	-0.8286300	1.0455700	0.2103400	-0.7019800	0.7637600	0.2486500	-0.7921900	1.4369500	-0.2089300	-0.6659700	1.6811700	-0.3755100	-0.6501200	1.9833800	-0.3717400	-0.6952500	0.8078300	-0.0379200	-0.7322400	0.8028700	0.0867800	-0.7575300	0.3173400	0.0908000	-0.8389400	-0.1819400	0.1414600	-0.7449600	0.8044200	-0.1573100	-0.7711300	0.3165400	-0.1533400	-0.8627300	-0.1919100	-0.1905600	-0.6024300	-0.2388300	-0.2613800	-0.6789900	-0.2467900	-0.2968800	-0.8949800	-0.2497400	-0.1787800	-0.5912700	-0.2291900	0.2049100	-0.6940800	-0.2334400	0.2490700	-0.9285100	-0.2505000	0.1118100
